<svg width="24" height="24" viewBox="0 0 24 24" fill="none" xmlns="http://www.w3.org/2000/svg">
<path d="M23.5658 2.34064C23.7176 2.49294 23.8029 2.69922 23.8029 2.91426C23.8029 3.12931 23.7176 3.33559 23.5658 3.48789L21.8709 5.18439L18.6209 1.93439L20.3158 0.237889C20.4681 0.0855688 20.6748 0 20.8902 0C21.1057 0 21.3123 0.0855688 21.4646 0.237889L23.5658 2.33901V2.34064ZM20.722 6.33164L17.472 3.08164L6.4009 14.1544C6.31147 14.2438 6.24414 14.3529 6.20428 14.4729L4.89615 18.3956C4.87243 18.4672 4.86906 18.5439 4.88642 18.6172C4.90379 18.6905 4.9412 18.7575 4.99448 18.8108C5.04775 18.8641 5.1148 18.9015 5.18812 18.9189C5.26144 18.9362 5.33814 18.9329 5.40965 18.9091L9.3324 17.601C9.45227 17.5616 9.56132 17.4949 9.6509 17.406L20.722 6.33326V6.33164Z" fill="#8E8E8E"/>
<path fill-rule="evenodd" clip-rule="evenodd" d="M0 21.1256C0 21.7721 0.256807 22.3921 0.713927 22.8492C1.17105 23.3063 1.79103 23.5631 2.4375 23.5631H20.3125C20.959 23.5631 21.579 23.3063 22.0361 22.8492C22.4932 22.3921 22.75 21.7721 22.75 21.1256V11.3756C22.75 11.1602 22.6644 10.9535 22.512 10.8011C22.3597 10.6487 22.153 10.5631 21.9375 10.5631C21.722 10.5631 21.5153 10.6487 21.363 10.8011C21.2106 10.9535 21.125 11.1602 21.125 11.3756V21.1256C21.125 21.3411 21.0394 21.5478 20.887 21.7002C20.7347 21.8525 20.528 21.9381 20.3125 21.9381H2.4375C2.22201 21.9381 2.01535 21.8525 1.86298 21.7002C1.7106 21.5478 1.625 21.3411 1.625 21.1256V3.25064C1.625 3.03515 1.7106 2.82849 1.86298 2.67612C2.01535 2.52374 2.22201 2.43814 2.4375 2.43814H13C13.2155 2.43814 13.4222 2.35254 13.5745 2.20017C13.7269 2.04779 13.8125 1.84113 13.8125 1.62564C13.8125 1.41015 13.7269 1.20349 13.5745 1.05112C13.4222 0.898743 13.2155 0.813141 13 0.813141H2.4375C1.79103 0.813141 1.17105 1.06995 0.713927 1.52707C0.256807 1.98419 0 2.60418 0 3.25064V21.1256Z" fill="#8E8E8E"/>
</svg>
