<svg width="24" height="24" viewBox="0 0 24 24" fill="none" xmlns="http://www.w3.org/2000/svg">
<path d="M1.84615 1.6C1.35652 1.6 0.886947 1.76857 0.540726 2.06863C0.194505 2.36869 0 2.77565 0 3.2V4.8C0 5.22435 0.194505 5.63131 0.540726 5.93137C0.886947 6.23143 1.35652 6.4 1.84615 6.4H2.76923V20.8C2.76923 21.6487 3.15824 22.4626 3.85068 23.0627C4.54312 23.6629 5.48228 24 6.46154 24H17.5385C18.5177 24 19.4569 23.6629 20.1493 23.0627C20.8418 22.4626 21.2308 21.6487 21.2308 20.8V6.4H22.1538C22.6435 6.4 23.1131 6.23143 23.4593 5.93137C23.8055 5.63131 24 5.22435 24 4.8V3.2C24 2.77565 23.8055 2.36869 23.4593 2.06863C23.1131 1.76857 22.6435 1.6 22.1538 1.6H15.6923C15.6923 1.17565 15.4978 0.768687 15.1516 0.468629C14.8054 0.168571 14.3358 0 13.8462 0L10.1538 0C9.66422 0 9.19464 0.168571 8.84842 0.468629C8.5022 0.768687 8.30769 1.17565 8.30769 1.6H1.84615ZM7.38462 8C7.62943 8 7.86422 8.08429 8.03733 8.23431C8.21044 8.38434 8.30769 8.58783 8.30769 8.8V20C8.30769 20.2122 8.21044 20.4157 8.03733 20.5657C7.86422 20.7157 7.62943 20.8 7.38462 20.8C7.1398 20.8 6.90501 20.7157 6.7319 20.5657C6.55879 20.4157 6.46154 20.2122 6.46154 20V8.8C6.46154 8.58783 6.55879 8.38434 6.7319 8.23431C6.90501 8.08429 7.1398 8 7.38462 8ZM12 8C12.2448 8 12.4796 8.08429 12.6527 8.23431C12.8258 8.38434 12.9231 8.58783 12.9231 8.8V20C12.9231 20.2122 12.8258 20.4157 12.6527 20.5657C12.4796 20.7157 12.2448 20.8 12 20.8C11.7552 20.8 11.5204 20.7157 11.3473 20.5657C11.1742 20.4157 11.0769 20.2122 11.0769 20V8.8C11.0769 8.58783 11.1742 8.38434 11.3473 8.23431C11.5204 8.08429 11.7552 8 12 8ZM17.5385 8.8V20C17.5385 20.2122 17.4412 20.4157 17.2681 20.5657C17.095 20.7157 16.8602 20.8 16.6154 20.8C16.3706 20.8 16.1358 20.7157 15.9627 20.5657C15.7896 20.4157 15.6923 20.2122 15.6923 20V8.8C15.6923 8.58783 15.7896 8.38434 15.9627 8.23431C16.1358 8.08429 16.3706 8 16.6154 8C16.8602 8 17.095 8.08429 17.2681 8.23431C17.4412 8.38434 17.5385 8.58783 17.5385 8.8Z" fill="#EA5959"/>
</svg>
